PathFileType	4	(X/Y/Z)	C:\Users\86182\Documents\cortex\Trimmed_M4_H10.trc
DataRate	CameraRate	NumFrames	NumMarkers	Units	OrigDataRate	OrigDataStartFrame	OrigNumFrames
100.00	100.00	       98	2	mm	100.00	361	       901
Frame#	Time	gripper			box			
		X1	Y1	Z1	X2	Y2	Z2	

361	3.600	276.10440	151.12326	292.26013	278.46985	147.73499	155.54361	
362	3.610	276.11841	151.11900	292.26822	278.48059	147.73500	155.54486	
363	3.620	276.13083	151.11598	292.27274	278.49280	147.73277	155.54349	
364	3.630	276.14105	151.11465	292.27307	278.50415	147.72961	155.54010	
365	3.640	276.14856	151.11517	292.26971	278.51212	147.72733	155.53607	
366	3.650	276.15314	151.11720	292.26392	278.51492	147.72743	155.53290	
367	3.660	276.15485	151.12009	292.25763	278.51242	147.73044	155.53171	
368	3.670	276.15390	151.12296	292.25266	278.50589	147.73550	155.53264	
369	3.680	276.15094	151.12511	292.25037	278.49765	147.74101	155.53500	
370	3.690	276.14679	151.12614	292.25104	278.48981	147.74556	155.53793	
371	3.700	276.14206	151.12616	292.25403	278.48309	147.74863	155.54099	
372	3.710	276.13675	151.12570	292.25824	278.47662	147.75082	155.54428	
373	3.720	276.13031	151.12552	292.26245	278.46869	147.75337	155.54820	
374	3.730	276.12219	151.12622	292.26575	278.45840	147.75711	155.55283	
375	3.740	276.11246	151.12805	292.26749	278.44650	147.76178	155.55765	
376	3.750	276.10214	151.13075	292.26730	278.43512	147.76634	155.56172	
377	3.760	276.09308	151.13367	292.26523	278.42627	147.76979	155.56442	
378	3.770	276.08734	151.13597	292.26202	278.42130	147.77148	155.56555	
379	3.780	276.08636	151.13698	292.25876	278.42072	147.77119	155.56525	
380	3.790	276.09067	151.13637	292.25653	278.42441	147.76915	155.56395	
381	3.800	276.09952	151.13416	292.25598	278.43198	147.76570	155.56201	
382	3.810	276.11127	151.13058	292.25708	278.44293	147.76117	155.55966	
383	3.820	276.12390	151.12614	292.25940	278.45630	147.75595	155.55695	
384	3.830	276.13553	151.12155	292.26239	278.47046	147.75073	155.55406	
385	3.840	276.14462	151.11757	292.26529	278.48334	147.74632	155.55135	
386	3.850	276.15030	151.11490	292.26740	278.49316	147.74316	155.54895	
387	3.860	276.15213	151.11394	292.26819	278.49899	147.74141	155.54691	
388	3.870	276.15021	151.11478	292.26752	278.50043	147.74097	155.54526	
389	3.880	276.14496	151.11708	292.26572	278.49765	147.74164	155.54404	
390	3.890	276.13742	151.12022	292.26349	278.49146	147.74323	155.54346	
391	3.900	276.12885	151.12340	292.26157	278.48285	147.74559	155.54382	
392	3.910	276.12039	151.12602	292.26074	278.47293	147.74876	155.54556	
393	3.920	276.11279	151.12794	292.26144	278.46286	147.75278	155.54865	
394	3.930	276.10651	151.12924	292.26379	278.45367	147.75720	155.55255	
395	3.940	276.10184	151.13004	292.26721	278.44635	147.76132	155.55649	
396	3.950	276.09924	151.13042	292.27057	278.44174	147.76440	155.55966	
397	3.960	276.09912	151.13049	292.27271	278.44049	147.76598	155.56149	
398	3.970	276.10178	151.13029	292.27286	278.44284	147.76601	155.56158	
399	3.980	276.10715	151.12982	292.27094	278.44836	147.76472	155.55994	
400	3.990	276.11447	151.12904	292.26755	278.45633	147.76250	155.55679	
401	4.000	276.12283	151.12798	292.26355	278.46558	147.75969	155.55275	
402	4.010	276.13147	151.12648	292.25995	278.47470	147.75677	155.54865	
403	4.020	276.13962	151.12453	292.25748	278.48230	147.75421	155.54529	
404	4.030	276.14636	151.12227	292.25668	278.48727	147.75238	155.54337	
405	4.040	276.15063	151.12007	292.25763	278.48935	147.75142	155.54303	
406	4.050	276.15207	151.11830	292.26001	278.48907	147.75128	155.54401	
407	4.060	276.15091	151.11719	292.26312	278.48706	147.75179	155.54578	
408	4.070	276.14780	151.11696	292.26602	278.48376	147.75270	155.54782	
409	4.080	276.14328	151.11784	292.26776	278.47940	147.75392	155.54977	
410	4.090	276.13773	151.11987	292.26804	278.47424	147.75539	155.55133	
411	4.100	276.13123	151.12282	292.26718	278.46875	147.75703	155.55228	
412	4.110	276.12402	151.12628	292.26575	278.46344	147.75874	155.55249	
413	4.120	276.11682	151.12976	292.26416	278.45871	147.76044	155.55223	
414	4.130	276.11053	151.13268	292.26285	278.45462	147.76212	155.55197	
415	4.140	276.10599	151.13457	292.26205	278.45102	147.76375	155.55225	
416	4.150	276.10382	151.13518	292.26199	278.44800	147.76524	155.55322	
417	4.160	276.10403	151.13458	292.26273	278.44601	147.76628	155.55466	
418	4.170	276.10629	151.13306	292.26410	278.44592	147.76637	155.55597	
419	4.180	276.10977	151.13101	292.26587	278.44830	147.76515	155.55661	
420	4.190	276.11377	151.12894	292.26740	278.45306	147.76254	155.55627	
421	4.200	276.11783	151.12723	292.26816	278.45959	147.75883	155.55499	
422	4.210	276.12164	151.12611	292.26779	278.46686	147.75461	155.55295	
423	4.220	276.12527	151.12555	292.26639	278.47369	147.75060	155.55048	
424	4.230	276.12903	151.12524	292.26422	278.47903	147.74744	155.54797	
425	4.240	276.13297	151.12497	292.26178	278.48242	147.74545	155.54578	
426	4.250	276.13654	151.12465	292.25964	278.48370	147.74469	155.54416	
427	4.260	276.13864	151.12436	292.25854	278.48279	147.74536	155.54349	
428	4.270	276.13864	151.12421	292.25885	278.47934	147.74776	155.54422	
429	4.280	276.13660	151.12415	292.26056	278.47354	147.75171	155.54637	
430	4.290	276.13327	151.12411	292.26321	278.46619	147.75645	155.54947	
431	4.300	276.12961	151.12418	292.26599	278.45807	147.76115	155.55296	
432	4.310	276.12622	151.12447	292.26813	278.45007	147.76520	155.55634	
433	4.320	276.12320	151.12514	292.26917	278.44321	147.76811	155.55917	
434	4.330	276.12036	151.12621	292.26935	278.43839	147.76959	155.56110	
435	4.340	276.11780	151.12746	292.26895	278.43628	147.76950	155.56197	
436	4.350	276.11618	151.12852	292.26813	278.43707	147.76793	155.56177	
437	4.360	276.11615	151.12900	292.26721	278.44064	147.76520	155.56061	
438	4.370	276.11826	151.12862	292.26630	278.44659	147.76184	155.55878	
439	4.380	276.12262	151.12727	292.26544	278.45395	147.75858	155.55664	
440	4.390	276.12888	151.12511	292.26471	278.46176	147.75589	155.55460	
441	4.400	276.13608	151.12245	292.26422	278.46906	147.75404	155.55286	
442	4.410	276.14310	151.11975	292.26401	278.47534	147.75301	155.55136	
443	4.420	276.14905	151.11745	292.26382	278.48035	147.75264	155.54999	
444	4.430	276.15332	151.11594	292.26343	278.48410	147.75279	155.54865	
445	4.440	276.15552	151.11542	292.26266	278.48679	147.75330	155.54730	
446	4.450	276.15561	151.11591	292.26163	278.48807	147.75421	155.54611	
447	4.460	276.15390	151.11714	292.26050	278.48709	147.75578	155.54547	
448	4.470	276.15094	151.11874	292.25967	278.48303	147.75819	155.54587	
449	4.480	276.14700	151.12041	292.25949	278.47556	147.76135	155.54758	
450	4.490	276.14218	151.12201	292.26013	278.46561	147.76482	155.55057	
451	4.500	276.13638	151.12358	292.26160	278.45468	147.76811	155.55420	
452	4.510	276.12979	151.12517	292.26367	278.44424	147.77090	155.55788	
453	4.520	276.12302	151.12671	292.26599	278.43527	147.77295	155.56107	
454	4.530	276.11694	151.12811	292.26804	278.42862	147.77400	155.56339	
455	4.540	276.11255	151.12926	292.26926	278.42502	147.77382	155.56451	
456	4.550	276.11057	151.12999	292.26941	278.42484	147.77229	155.56436	
457	4.560	276.11118	151.13016	292.26862	278.42813	147.76949	155.56294	
458	4.570	276.11423	151.12961	292.26727	278.43466	147.76570	155.56052	
